ply
format ascii 1.0
comment Created by Blender 2.82 (sub 7) - www.blender.org, source file: ''
element vertex 48
property float x
property float y
property float z
property float nx
property float ny
property float nz
element face 28
property list uchar uint vertex_indices
end_header
-0.099062 -0.083410 -0.065699 0.000000 0.000000 -1.000000
0.103638 -0.085710 -0.065699 0.000000 0.000000 -1.000000
-0.101362 -0.085710 -0.065699 0.000000 0.000000 -1.000000
-0.099062 0.076990 -0.065699 0.000000 0.000000 -1.000000
-0.101362 0.079290 -0.065699 0.000000 0.000000 -1.000000
0.103638 -0.085710 -0.065699 0.000000 -1.000000 0.000000
-0.101362 -0.085710 0.002301 0.000000 -1.000000 0.000000
-0.101362 -0.085710 -0.065699 0.000000 -1.000000 0.000000
-0.101362 0.079290 0.002301 -1.000000 0.000000 0.000000
-0.101362 0.079290 -0.065699 -1.000000 0.000000 0.000000
-0.101362 -0.085710 -0.065699 -1.000000 0.000000 0.000000
-0.101362 -0.085710 0.002301 -1.000000 0.000000 0.000000
0.101338 -0.083410 -0.065699 -0.000000 0.000000 -1.000000
0.103638 0.079290 -0.065699 -0.000000 0.000000 -1.000000
0.103638 0.079290 -0.065699 1.000000 -0.000000 0.000000
0.103638 -0.085710 0.002301 1.000000 -0.000000 0.000000
0.103638 -0.085710 -0.065699 1.000000 -0.000000 0.000000
0.103638 -0.085710 0.002301 0.000000 -1.000000 0.000000
0.103638 0.079290 0.002301 0.000000 0.000000 1.000000
-0.101362 0.079290 0.002301 0.000000 0.000000 1.000000
-0.101362 -0.085710 0.002301 0.000000 0.000000 1.000000
0.103638 -0.085710 0.002301 -0.000000 0.000000 1.000000
0.103638 0.079290 0.002301 1.000000 -0.000000 0.000000
0.101338 -0.083410 0.000001 0.000000 1.000000 0.000000
0.101338 -0.083410 -0.065699 0.000000 1.000000 0.000000
-0.099062 -0.083410 -0.065699 0.000000 1.000000 0.000000
-0.099062 -0.083410 0.000001 0.000000 1.000000 -0.000000
-0.099062 0.076990 -0.065699 1.000000 -0.000000 0.000000
-0.099062 -0.083410 0.000001 1.000000 -0.000000 0.000000
-0.099062 -0.083410 -0.065699 1.000000 -0.000000 0.000000
0.101338 0.076990 -0.065699 -0.000000 0.000000 -1.000000
0.101338 0.076990 0.000001 -1.000000 0.000000 0.000000
0.101338 0.076990 -0.065699 -1.000000 0.000000 0.000000
0.101338 -0.083410 -0.065699 -1.000000 0.000000 0.000000
0.101338 -0.083410 0.000001 -1.000000 0.000000 0.000000
-0.099062 0.076990 0.000001 1.000000 -0.000000 0.000000
-0.099062 0.076990 0.000001 0.000000 0.000000 -1.000000
0.101338 -0.083410 0.000001 0.000000 0.000000 -1.000000
-0.099062 -0.083410 0.000001 0.000000 0.000000 -1.000000
0.101338 0.076990 0.000001 0.000000 0.000000 -1.000000
0.101338 0.076990 -0.065699 0.000000 -1.000000 0.000000
-0.099062 0.076990 0.000001 0.000000 -1.000000 0.000000
-0.099062 0.076990 -0.065699 0.000000 -1.000000 0.000000
0.101338 0.076990 0.000001 0.000000 -1.000000 0.000000
0.103638 0.079290 0.002301 0.000000 1.000000 0.000000
0.103638 0.079290 -0.065699 0.000000 1.000000 0.000000
-0.101362 0.079290 -0.065699 0.000000 1.000000 0.000000
-0.101362 0.079290 0.002301 0.000000 1.000000 -0.000000
3 0 1 2
3 3 0 2
3 4 3 2
3 5 6 7
3 8 9 10
3 11 8 10
3 12 13 1
3 0 12 1
3 14 15 16
3 17 6 5
3 18 19 20
3 21 18 20
3 14 22 15
3 23 24 25
3 26 23 25
3 27 28 29
3 30 13 12
3 31 32 33
3 34 31 33
3 27 35 28
3 36 37 38
3 36 39 37
3 4 30 3
3 40 41 42
3 4 13 30
3 43 41 40
3 44 45 46
3 47 44 46
