ply
format ascii 1.0
comment Created by Blender 2.82 (sub 7) - www.blender.org, source file: 'small_marker.blend'
element vertex 600
property float x
property float y
property float z
property float nx
property float ny
property float nz
element face 1092
property list uchar uint vertex_indices
end_header
0.010718 0.031947 -0.004310 0.613025 0.081729 -0.785791
0.010144 0.031854 -0.004713 0.517960 0.081606 -0.851466
0.010278 0.035006 -0.004281 0.578387 0.108432 -0.808496
0.009876 0.034711 -0.004590 0.510971 0.092380 -0.854610
0.008482 -0.039495 0.002664 -0.167577 -0.519517 0.837825
0.008765 -0.039552 0.001990 0.494308 -0.860042 0.126225
0.009050 -0.039271 0.002100 0.809381 -0.429334 0.400647
0.008653 -0.038348 0.002925 0.696432 -0.209815 0.686239
0.008875 0.035556 -0.005031 0.424726 0.092593 -0.900540
0.008847 0.038808 -0.004645 0.477035 0.161016 -0.863979
0.009638 0.036791 -0.004474 0.530106 0.118931 -0.839503
-0.006139 0.040693 0.001611 -0.205695 0.864834 0.457961
-0.006724 0.041295 0.000097 -0.132694 0.949217 0.285195
-0.008380 0.041067 -0.000226 -0.414228 0.894101 0.170171
-0.007222 0.040452 0.001525 -0.249519 0.818873 0.516861
0.009517 0.039486 -0.004055 0.539354 0.393414 -0.744499
0.009905 0.038989 -0.003935 0.606128 0.204230 -0.768670
0.010282 0.039160 -0.003539 0.704428 0.304178 -0.641255
0.009962 0.039614 -0.003603 0.621998 0.474685 -0.622669
0.008718 0.014696 -0.006203 0.414808 0.023621 -0.909574
0.010747 0.011919 -0.005086 0.545183 -0.011444 -0.838221
0.008322 -0.001788 -0.005891 0.373882 -0.038942 -0.926633
0.007354 0.002293 -0.006379 0.323252 -0.033723 -0.945708
0.010469 0.039811 -0.002756 0.834742 0.517960 -0.186651
0.010568 0.039241 -0.003139 0.835200 0.359539 -0.416120
0.010265 0.040076 -0.002739 0.678243 0.689016 0.255287
0.009839 0.040327 -0.002625 0.449049 0.888424 -0.094913
0.010304 0.039996 -0.002268 0.744560 0.622883 0.240028
0.010134 0.040030 -0.002961 0.557604 0.673574 -0.485092
0.010000 0.040149 -0.002048 0.534043 0.782861 0.319193
0.008893 0.039961 -0.000182 0.614460 0.593768 0.519456
-0.010444 0.039748 -0.000713 -0.912870 0.326273 -0.245308
-0.009480 0.040200 -0.001622 -0.549608 0.602008 -0.579180
-0.008559 0.039455 -0.003180 -0.614582 0.435743 -0.657552
-0.009165 0.038607 -0.002870 -0.768792 0.166295 -0.617481
0.007865 0.039764 0.000941 0.561113 0.483108 0.672109
0.009398 0.038772 -0.000074 0.766289 0.251961 0.590991
-0.003353 0.040610 0.002695 -0.121220 0.854915 0.504349
-0.002985 0.040946 0.002066 -0.069857 0.913175 0.401471
-0.003591 0.041100 0.001597 -0.100223 0.914640 0.391583
-0.004711 0.040824 0.001879 -0.130406 0.897794 0.420606
0.008645 0.037123 0.001087 0.598163 0.178716 0.781182
0.009827 0.036377 0.000355 0.943907 0.150334 0.293954
0.007499 0.038377 0.001645 0.566729 0.197455 0.799860
0.007768 0.032868 0.002469 0.517838 0.127964 0.845820
0.007008 0.038318 0.001963 0.462844 0.183935 0.867122
0.005729 0.036205 0.002903 0.342448 0.141179 0.928831
0.006493 0.029693 0.003475 0.348277 0.119785 0.929685
0.006982 0.028214 0.003461 0.419599 0.106174 0.901456
0.007201 0.024957 0.003723 0.438673 0.093783 0.893704
0.005374 0.017010 0.005081 0.289712 0.073733 0.954253
0.005262 0.008621 0.005572 0.325938 0.028809 0.944945
0.006381 0.013811 0.004952 0.384381 0.049745 0.921812
0.005376 0.003473 0.005577 0.349071 -0.002197 0.937071
0.006547 0.011500 0.004992 0.381207 0.027345 0.924070
-0.006861 0.019274 -0.006154 -0.441206 0.011872 -0.897305
-0.005762 0.019492 -0.006582 -0.313974 0.023072 -0.949126
-0.004959 0.016220 -0.006903 -0.293924 0.014588 -0.955687
-0.005928 0.013023 -0.006583 -0.388226 -0.008484 -0.921506
0.006855 0.003728 0.004886 0.467757 0.001221 0.883847
0.005489 -0.006918 0.005423 0.419111 -0.011536 0.907834
0.007409 -0.014354 0.004340 0.461715 -0.016877 0.886837
0.006661 0.023636 0.004075 0.348766 0.090701 0.932798
0.007245 0.020037 0.004162 0.437239 0.069338 0.896634
0.006141 0.020267 0.004572 0.309702 0.082034 0.947264
0.006637 0.026221 0.003819 0.337779 0.099124 0.935972
0.005290 -0.011209 0.005443 0.423322 -0.016724 0.905789
0.005162 -0.013589 0.005451 0.416700 -0.021088 0.908780
0.005862 -0.018676 0.004999 0.428053 -0.022645 0.903439
0.006975 -0.026716 0.004262 0.428388 -0.026490 0.903165
0.008714 -0.023980 0.003453 0.475997 -0.022492 0.879116
0.008060 -0.036131 0.003464 0.469985 -0.042665 0.881619
0.008755 -0.034927 0.003119 0.582812 -0.046175 0.811274
0.009255 -0.031941 0.002907 0.580798 -0.040803 0.812983
0.009489 -0.022393 0.003049 0.520096 -0.019227 0.853877
0.010398 -0.022122 0.002455 0.723014 -0.033845 0.689993
0.009924 -0.030330 0.002462 0.797143 -0.064974 0.600269
0.009552 -0.036732 0.001832 0.928861 -0.137089 0.344066
0.009252 -0.039245 0.001630 0.656026 -0.746818 0.108890
0.009418 -0.039051 -0.000751 0.776086 -0.630085 0.025910
0.008344 -0.039653 0.002353 0.149174 -0.951781 0.268014
0.006523 -0.039775 0.003288 0.261727 -0.888546 0.376782
-0.010046 0.035763 0.001262 -0.584124 0.150700 0.797540
-0.009659 0.035161 0.001639 -0.524735 0.135105 0.840449
-0.008670 0.036043 0.002034 -0.430128 0.139988 0.891812
-0.009388 0.037408 0.001407 -0.526536 0.160558 0.834834
0.006846 -0.040447 -0.002156 0.284371 -0.957060 0.056093
0.006777 -0.040448 -0.003270 0.383099 -0.751579 -0.536943
-0.009356 0.040604 -0.000814 -0.362011 0.923185 -0.129063
-0.008370 0.040690 0.000485 -0.392010 0.810877 0.434492
0.009069 -0.038948 -0.002469 0.627461 -0.502640 -0.594623
0.009913 -0.038030 -0.002114 0.905301 -0.231971 -0.355785
0.006505 0.040165 -0.004843 0.198492 0.842097 -0.501419
0.007014 0.040873 -0.003393 0.167669 0.913236 -0.371258
0.008616 0.040703 -0.003022 0.295907 0.906247 -0.301828
0.007425 0.039968 -0.004760 0.241951 0.787072 -0.567400
0.007293 -0.035315 -0.003812 0.395642 -0.092318 -0.913724
-0.005642 0.040524 0.002136 -0.196631 0.845271 0.496811
0.005987 -0.038833 -0.003947 0.310800 -0.179571 -0.933348
-0.005723 0.040396 0.002296 -0.243690 0.735984 0.631581
0.005518 -0.028485 -0.004970 0.222633 -0.081362 -0.971465
-0.006639 0.040226 0.002074 -0.328043 0.507401 0.796808
0.006974 -0.014312 -0.005665 0.273995 -0.058260 -0.959960
-0.005741 0.040307 0.002370 -0.264229 0.550615 0.791803
0.008167 -0.023303 -0.004571 0.376751 -0.084048 -0.922483
-0.005885 0.040199 0.002383 -0.294870 0.331858 0.896023
0.008321 -0.018363 -0.004909 0.367962 -0.071200 -0.927091
0.009220 -0.018255 -0.004497 0.478805 -0.066378 -0.875362
-0.007743 0.040214 0.001603 -0.336833 0.620563 0.708090
-0.007757 0.039821 0.001769 -0.371899 0.259926 0.891110
0.008520 -0.014581 -0.005078 0.393750 -0.057955 -0.917356
-0.008253 0.040034 0.001481 -0.418714 0.448866 0.789392
0.008689 -0.010593 -0.005251 0.393597 -0.055391 -0.917600
-0.008677 0.039266 0.001458 -0.479019 0.211768 0.851833
0.009925 -0.006278 -0.004916 0.467666 -0.053591 -0.882260
-0.007683 0.037770 0.002180 -0.361980 0.150853 0.919858
0.007109 0.012876 -0.006712 0.281472 -0.007355 -0.959502
0.005367 0.021976 -0.007086 0.217719 0.023316 -0.975707
0.007249 0.029905 -0.006138 0.317362 0.058382 -0.946471
-0.006778 0.002935 0.005327 -0.326823 0.017701 0.944914
-0.008281 0.015289 0.004423 -0.418867 0.071902 0.905179
-0.010275 0.012429 0.003463 -0.548540 0.031190 0.835505
-0.007698 -0.001179 0.005076 -0.376476 0.010651 0.926359
0.009204 0.031861 -0.005224 0.416700 0.075777 -0.905850
0.003990 0.030978 -0.006955 0.182470 0.066652 -0.980926
-0.009895 0.032313 0.001928 -0.522691 0.125675 0.843196
-0.009505 0.028146 0.002702 -0.449385 0.087649 0.889004
-0.008958 0.032362 0.002441 -0.421339 0.123722 0.898404
0.003644 0.027882 0.004513 0.208777 0.099857 0.972839
0.004371 0.016058 0.005415 0.189642 0.059908 0.980010
0.005570 0.027954 0.003974 0.282662 0.103946 0.953551
-0.010182 0.030801 0.001961 -0.556475 0.111026 0.823389
0.009799 0.027644 -0.005240 0.445204 0.040651 -0.894498
0.010448 0.030346 -0.004659 0.552232 0.069033 -0.830805
0.011191 0.028533 -0.004242 0.657826 0.069247 -0.749962
0.010724 0.025403 -0.004842 0.605274 0.020203 -0.795740
0.006190 0.038918 -0.005668 0.297281 0.120701 -0.947111
0.007868 0.037260 -0.005273 0.356945 0.100955 -0.928617
-0.010403 0.025875 0.002431 -0.608814 0.059633 0.791040
-0.010143 -0.002640 0.003882 -0.817682 0.006561 0.575579
-0.009246 -0.005736 0.004359 -0.470748 -0.007416 0.882229
-0.006984 0.030485 0.003475 -0.322001 0.109867 0.940336
-0.003741 0.031641 0.004239 -0.187353 0.121677 0.974700
-0.003283 0.039243 0.003268 -0.191046 0.160802 0.968291
-0.006026 0.039467 0.002483 -0.302622 0.172338 0.937376
-0.010903 0.028959 0.001648 -0.661733 0.105289 0.742271
-0.010924 0.022646 0.002413 -0.244819 0.111209 0.963164
-0.011084 0.021056 0.002438 -0.632282 0.044465 0.773431
0.003775 -0.040634 -0.002093 0.024293 -0.998260 0.053499
0.005261 -0.040695 -0.003494 0.143834 -0.779077 -0.610187
-0.011684 0.021504 0.001720 -0.770226 0.062166 0.634724
-0.012056 0.012866 0.001930 -0.742821 0.024812 0.668996
-0.011674 -0.003996 0.002525 -0.713218 0.005982 0.700888
0.007919 0.039333 -0.004984 0.365703 0.211615 -0.906339
0.008414 0.039568 -0.004710 0.410382 0.393353 -0.822687
-0.010810 -0.007491 0.003332 -0.494278 -0.014100 0.869167
-0.008588 0.040287 0.001002 -0.403577 0.717154 0.568133
-0.008791 0.039961 0.001214 -0.508713 0.415632 0.753929
-0.006655 0.013521 0.005043 -0.285440 0.045381 0.957305
0.008954 0.039517 -0.004441 0.492172 0.363414 -0.790979
-0.005935 0.011675 0.005317 -0.256050 0.034120 0.966033
-0.005321 0.008242 0.005577 -0.208502 0.024201 0.977691
0.004723 0.013249 -0.007300 0.162206 -0.005341 -0.986724
0.005661 0.001102 -0.006734 0.175390 -0.040101 -0.983673
0.003442 -0.002668 -0.006886 0.099033 -0.044923 -0.994049
0.001138 0.011620 -0.007564 0.032746 -0.018677 -0.999268
-0.008403 -0.017708 0.004642 -0.481735 -0.020692 0.876064
-0.007748 -0.013999 0.005011 -0.395367 -0.008454 0.918455
-0.007963 -0.010010 0.004950 -0.395062 -0.006287 0.918607
0.005728 0.040650 0.001120 0.221870 0.912900 0.342570
0.006781 0.040492 0.000809 0.298135 0.870632 0.391217
0.007109 0.040756 -0.000194 0.259407 0.924863 0.278054
0.006822 0.040927 -0.000622 0.213080 0.958098 0.191260
-0.007505 -0.017782 0.005063 -0.372845 -0.021119 0.927641
0.009804 0.039829 -0.003546 0.518265 0.641072 -0.565996
-0.010571 -0.011451 -0.001887 -0.914640 -0.062624 -0.399365
-0.010008 -0.022903 -0.001131 -0.924863 -0.086184 -0.370373
-0.011303 -0.015031 0.001432 -0.963256 -0.079958 -0.256294
-0.009691 -0.027334 -0.000799 -0.928587 -0.091372 -0.359630
-0.011546 -0.015632 0.002498 -0.947844 -0.103854 0.301309
-0.012009 -0.004645 0.002025 -0.996338 -0.039705 -0.075442
0.003887 0.040660 0.002009 0.154576 0.914853 0.372936
0.003597 0.040550 0.002376 0.153264 0.872768 0.463363
0.004294 0.040385 0.002433 0.244850 0.749779 0.614673
0.004774 0.040541 0.001894 0.188635 0.897763 0.397961
-0.012346 0.005457 0.001471 -0.997620 -0.036042 -0.058473
-0.012403 0.012287 0.000535 -0.969665 -0.006073 -0.244270
0.009532 0.040023 -0.003567 0.416517 0.750633 -0.512833
0.009190 0.040121 -0.003645 0.337596 0.799738 -0.496414
-0.011276 0.004668 -0.002234 -0.891781 -0.030396 -0.451399
0.008108 0.040430 -0.000265 0.361980 0.879696 0.308329
0.008620 0.040202 -0.000257 0.440443 0.823054 0.358531
0.008758 0.040664 -0.001921 0.365276 0.912534 0.183813
-0.011990 -0.004658 0.002154 -0.908414 -0.019074 0.417585
-0.012398 0.008212 0.001540 -0.953154 -0.006592 0.302347
-0.009516 -0.022998 -0.001961 -0.727561 -0.082339 -0.681051
-0.008663 -0.023349 -0.002497 -0.523453 -0.073519 -0.848842
-0.009020 -0.026641 -0.001966 -0.705557 -0.100589 -0.701437
0.007837 0.040205 0.000546 0.471816 0.695242 0.542192
0.006906 0.039945 0.001505 0.441755 0.540422 0.716056
-0.010172 -0.009910 -0.002745 -0.690298 -0.072848 -0.719810
-0.009352 -0.005454 -0.003583 -0.526444 -0.053194 -0.848506
0.007092 0.039615 0.001578 0.378796 0.320170 0.868313
-0.010541 -0.004452 -0.002827 -0.757012 -0.028138 -0.652760
-0.010294 0.002711 -0.003446 -0.718589 -0.056917 -0.693075
0.006206 0.039204 0.002151 0.428541 0.222205 0.875729
-0.009440 0.003913 -0.004114 -0.555712 -0.031404 -0.830775
-0.007569 0.011948 -0.005670 -0.554155 -0.021546 -0.832087
0.005271 0.039102 0.002579 0.327342 0.204749 0.922422
-0.010619 0.014895 -0.003217 -0.793634 0.003967 -0.608356
0.003761 0.039075 0.003015 0.225471 0.185125 0.956481
-0.008219 0.014578 -0.005335 -0.578936 -0.022767 -0.815027
0.003879 0.033405 0.003817 0.220466 0.122837 0.967620
-0.008175 0.018519 -0.005371 -0.594378 0.007630 -0.804132
-0.008122 0.023765 -0.005293 -0.584460 0.021516 -0.811090
-0.006873 0.024212 -0.006003 -0.440931 0.033815 -0.896878
-0.009231 0.026504 -0.004266 -0.751427 0.042940 -0.658406
-0.008129 0.028937 -0.005118 -0.600391 0.056429 -0.797693
-0.005683 -0.039979 0.004102 -0.375622 -0.770867 0.514420
-0.006055 -0.040412 -0.000610 -0.178503 -0.983703 -0.021180
-0.003628 -0.040596 -0.001273 -0.050691 -0.998688 -0.006012
-0.003651 -0.040207 0.004164 -0.023804 -0.995209 0.094516
0.005924 0.023746 0.004305 0.263192 0.095584 0.959990
-0.009597 0.032260 -0.003135 -0.805750 0.072542 -0.587786
-0.007525 0.035904 -0.004893 -0.576922 0.102542 -0.810297
-0.005277 0.027207 -0.006436 -0.287240 0.044710 -0.956786
-0.003353 0.027126 -0.006978 -0.213355 0.040498 -0.976104
-0.003946 0.015262 -0.007185 -0.193793 0.000397 -0.981017
0.005055 0.041239 -0.000272 0.175542 0.966247 0.188513
0.007819 0.040974 -0.002523 0.180242 0.981079 -0.070345
0.005716 0.041308 -0.002325 0.137791 0.988861 -0.055849
0.004676 0.005295 0.005778 0.220191 0.015168 0.975311
0.003663 -0.010430 0.006003 0.184179 0.000946 0.982879
-0.007759 0.038917 -0.004111 -0.613330 0.283029 -0.737327
0.004493 -0.011382 0.005793 0.323191 -0.011444 0.946257
-0.008035 0.039689 -0.003371 0.021485 0.946501 -0.321940
-0.010238 0.040364 -0.000773 -0.703726 0.634388 0.319742
-0.010276 0.040171 -0.000482 -0.792749 0.605914 -0.066286
-0.009936 0.040385 -0.000269 -0.506638 0.827784 0.240883
0.004708 -0.019734 0.005498 0.398663 -0.028687 0.916623
-0.009517 0.040339 0.000259 -0.351360 0.839900 0.413617
0.006188 -0.035897 0.004305 0.342326 -0.053041 0.938078
0.007997 -0.038838 0.003394 0.557115 -0.214087 0.802332
0.010621 0.039304 -0.002317 0.922483 0.282357 0.263192
-0.009325 0.039935 0.000820 -0.543962 0.441542 0.713523
0.007783 -0.039279 0.003341 0.610614 -0.775842 0.158666
-0.009758 0.038918 0.000826 -0.610248 0.209876 0.763878
-0.007872 -0.039773 -0.001031 -0.746330 -0.435469 -0.503311
-0.007591 -0.038951 -0.001505 -0.682272 -0.200537 -0.703024
-0.007406 -0.040078 -0.001179 -0.474899 -0.659749 -0.582385
-0.007667 -0.040012 -0.000616 -0.499954 -0.864742 -0.046999
-0.010469 0.032376 0.001518 -0.616871 0.121067 0.777673
0.003160 -0.039782 0.004796 0.240333 -0.726737 0.643483
0.001211 -0.040077 0.004350 0.075442 -0.966918 0.243629
0.005529 -0.040207 0.001766 0.170812 -0.975280 0.140049
-0.010669 0.034149 0.001066 -0.680044 0.136418 0.720328
0.006588 -0.039273 0.003858 0.311258 -0.440901 0.841823
-0.010921 0.033869 0.000834 -0.860927 0.132054 0.491256
0.002476 -0.039453 0.005210 0.190588 -0.474136 0.859554
-0.011251 0.031420 0.000885 -0.884518 0.109012 0.453536
-0.011499 0.028664 0.001010 -0.840632 0.103763 0.531510
-0.011252 0.027587 0.001511 -0.738121 0.097049 0.667623
-0.011195 0.025412 0.001843 -0.692007 0.085299 0.716819
0.004215 -0.040645 -0.003675 0.081149 -0.856624 -0.509445
-0.004935 -0.038245 0.005307 -0.426710 -0.202826 0.881314
-0.003142 -0.040049 0.005147 -0.124821 -0.806787 0.577441
-0.003266 -0.039466 0.005516 -0.202857 -0.322550 0.924528
-0.011487 0.025534 0.001507 -0.822718 0.073977 0.563585
0.004331 -0.040083 -0.004077 0.149510 -0.324900 -0.933836
0.004461 -0.037924 -0.004333 0.129276 -0.102573 -0.986267
-0.011912 0.024715 0.000970 -0.907834 0.078127 0.411969
-0.012030 0.021178 0.001300 -0.842158 0.068422 0.534806
0.002682 -0.032070 -0.005032 0.039796 -0.087771 -0.995331
-0.012268 0.017497 0.001336 -0.862636 0.053591 0.502914
0.004300 -0.023670 -0.005543 0.124729 -0.074160 -0.989410
0.005471 -0.014854 -0.005998 0.164525 -0.062746 -0.984344
-0.012485 0.014479 0.001248 -0.972869 0.029206 0.229377
-0.006146 -0.014285 0.005599 -0.278237 -0.006958 0.960479
-0.004699 -0.014182 0.005955 -0.163366 -0.005249 0.986541
-0.002812 -0.001943 0.006137 -0.103122 0.011994 0.994568
-0.005073 0.001786 0.005758 -0.179327 0.015168 0.983642
0.006410 0.011009 -0.006875 0.252174 -0.019440 -0.967467
-0.012286 0.020260 0.000819 -0.997284 0.060671 0.041353
-0.012291 0.018430 0.000193 -0.962371 0.030244 -0.269967
0.001904 0.023630 -0.007491 0.054170 0.015992 -0.998383
0.003538 0.026273 -0.007271 0.141820 0.037599 -0.989166
-0.010143 0.039575 0.000259 -0.718223 0.355205 0.598254
-0.009774 0.040030 0.000361 -0.632221 0.503891 0.588519
0.005835 0.007559 -0.006932 0.204749 -0.030549 -0.978332
0.001895 0.031048 -0.007141 0.040742 0.062532 -0.997192
0.002729 0.035472 -0.006806 0.105747 0.075259 -0.991516
0.003447 0.038618 -0.006427 0.185705 0.106143 -0.976836
-0.011636 0.030113 0.000387 -0.993347 0.109134 -0.036653
-0.011173 0.034005 -0.000049 -0.988189 0.107334 -0.109165
0.002731 0.027720 -0.007282 0.066958 0.050630 -0.996460
0.001163 0.038654 -0.006657 0.017701 0.143986 -0.989410
0.002125 0.039589 -0.006534 -0.013611 0.247353 -0.968810
-0.010432 0.037570 0.000557 -0.743980 0.140477 0.653218
-0.010680 0.038179 0.000070 -0.903073 0.134129 0.407941
-0.003863 0.040397 0.002896 -0.178564 0.614277 0.768578
-0.004348 0.040241 0.002845 -0.274087 0.341258 0.899106
-0.003104 0.040338 0.003078 -0.163060 0.447645 0.879208
-0.010653 0.038862 -0.000178 -0.972076 0.172369 0.159124
0.004502 0.039651 -0.006068 0.266945 0.291238 -0.918638
0.004773 0.039851 -0.005864 0.232551 0.635121 -0.736534
-0.010562 0.039507 -0.000339 -0.933287 0.344798 0.100375
0.006041 0.039653 -0.005611 0.287851 0.282296 -0.915098
-0.010420 0.039581 -0.000102 -0.668477 0.621723 0.408063
0.006796 0.039706 -0.005307 0.320292 0.460768 -0.827693
0.007902 0.039735 -0.004840 0.325571 0.574786 -0.750725
0.008690 0.039850 -0.004301 0.369579 0.653005 -0.661031
-0.009587 0.040163 0.000415 -0.504532 0.634510 0.585498
0.008435 0.040233 -0.003883 0.269356 0.815119 -0.512803
0.009269 0.039812 -0.003981 0.440138 0.628468 -0.641285
0.008619 0.040799 -0.002393 0.529160 0.848292 -0.019227
0.007529 0.040618 -0.000198 0.316233 0.901059 0.296670
0.007243 0.040349 0.000767 0.360118 0.811701 0.459792
-0.012212 0.020286 0.001087 -0.926115 0.060244 0.372326
0.005478 0.040034 0.002221 0.347667 0.443251 0.826197
0.006123 0.039881 0.002007 0.416303 0.431013 0.800531
-0.010489 0.038763 0.000166 -0.768914 0.211310 0.603381
0.001968 0.001787 0.006151 0.068911 0.008606 0.997559
0.002029 -0.011472 0.006211 0.068148 0.000793 0.997650
0.003629 0.005136 0.005933 0.125675 0.019562 0.991852
0.010839 0.038390 -0.003050 0.915036 0.177557 -0.362163
0.010754 0.038148 -0.003278 0.780419 0.161718 -0.603961
0.003753 0.040275 0.002724 0.249702 0.495682 0.831782
0.002598 0.040282 0.003028 0.167028 0.436079 0.884243
0.001127 0.040274 0.003191 0.094516 0.477096 0.873745
0.001832 0.036789 0.003710 0.106052 0.141881 0.984161
0.002296 0.028045 0.004717 0.130528 0.101688 0.986206
-0.001972 0.040234 0.003322 -0.000793 0.296945 0.954863
-0.002072 0.040426 0.003172 -0.038057 0.608814 0.792352
-0.003066 -0.012292 0.006158 -0.105075 -0.001679 0.994446
-0.003426 -0.022996 0.006021 -0.123936 -0.017212 0.992126
-0.001695 -0.020417 0.006206 -0.046052 -0.009705 0.998871
0.002901 -0.015217 0.006126 0.910184 -0.155492 0.383862
0.001526 -0.023004 0.006171 0.099765 -0.025422 0.994659
0.003531 -0.017759 0.005980 0.184210 -0.012299 0.982788
-0.003080 0.004337 -0.007068 -0.129429 -0.039796 -0.990783
-0.001382 0.001001 -0.007097 -0.072542 -0.050447 -0.996063
-0.001289 -0.012239 -0.006383 -0.071688 -0.058199 -0.995697
-0.002934 -0.011205 -0.006229 -0.187689 -0.058504 -0.980468
0.003978 -0.018123 0.005857 0.322550 -0.024171 0.946226
0.003460 0.041233 -0.003543 0.067690 0.937834 -0.340403
0.002252 0.041664 -0.002034 0.081179 0.993133 -0.084140
0.002494 0.041631 -0.000469 0.126652 0.978668 0.161687
0.003764 0.041405 -0.000100 0.132939 0.969176 0.207373
-0.008507 -0.037176 -0.000520 -0.929106 -0.162053 -0.332347
-0.008953 -0.030934 -0.001506 -0.803064 -0.109745 -0.585650
0.004639 0.040968 0.000890 0.169683 0.932585 0.318522
-0.008332 -0.032242 -0.001851 -0.583544 -0.094852 -0.806482
-0.002923 0.040255 -0.005029 -0.133824 0.903165 -0.407849
-0.003734 0.040024 -0.005223 -0.175512 0.884762 -0.431684
-0.004851 0.040530 -0.003651 -0.175512 0.896847 -0.405957
-0.003614 0.040969 -0.003169 -0.137181 0.913938 -0.381909
-0.007733 -0.035549 -0.001898 -0.583453 -0.100131 -0.805933
-0.007819 -0.024640 -0.002871 -0.479080 -0.078982 -0.874172
-0.007026 -0.036763 -0.002175 -0.472610 -0.099399 -0.875637
-0.006052 -0.027398 -0.003526 -0.431257 -0.084048 -0.898282
0.005045 0.040705 0.001363 0.190893 0.910947 0.365612
-0.006629 -0.015068 -0.004324 -0.464644 -0.073885 -0.882382
-0.005034 -0.019403 -0.004736 -0.430982 -0.080233 -0.898770
-0.003870 -0.020475 -0.005177 -0.401563 -0.086703 -0.911710
-0.006796 0.039790 -0.004120 -0.337901 0.779321 -0.527665
-0.006071 0.039942 -0.004284 -0.296274 0.792322 -0.533280
-0.005318 0.039369 -0.005391 -0.358959 0.472152 -0.805109
-0.006924 0.039246 -0.004517 -0.439650 0.516007 -0.735099
-0.004395 -0.014343 -0.005487 -0.419660 -0.078860 -0.904233
-0.003753 -0.012153 -0.005960 -0.326395 -0.070345 -0.942595
-0.003444 0.039897 -0.005584 -0.166265 0.842677 -0.512040
-0.004140 0.039721 -0.005629 -0.262917 0.731193 -0.629414
-0.004890 0.039987 -0.004795 -0.212531 0.866665 -0.451338
-0.003161 -0.018880 -0.005632 -0.325632 -0.083041 -0.941832
0.002546 0.040595 0.002602 0.110538 0.889492 0.443312
-0.004550 -0.011969 -0.005617 -0.426344 -0.074404 -0.901486
0.003108 0.040410 0.002778 0.171484 0.742576 0.647389
-0.004798 -0.007686 -0.005847 -0.422193 -0.069277 -0.903836
0.002021 0.040447 0.003002 0.094821 0.714988 0.692648
-0.004807 0.002679 -0.006608 -0.352336 -0.060884 -0.933866
0.001173 0.040738 0.002585 0.051424 0.882077 0.468215
-0.006286 0.002957 -0.005927 -0.470870 -0.055666 -0.880428
-0.006068 0.010712 -0.006487 -0.384777 -0.030976 -0.922452
0.010169 0.033445 0.000428 0.795343 0.112705 0.595538
0.011105 0.015476 0.001487 0.799158 0.046785 0.599261
0.012704 0.018218 -0.002172 0.970244 0.051576 0.236457
0.011393 0.034269 -0.002861 0.990997 0.132878 0.015595
-0.000386 0.041253 0.001437 0.017975 0.931669 0.362774
0.000729 0.040713 0.002716 0.088717 0.894559 0.438002
-0.004751 0.007819 -0.006904 -0.329600 -0.030091 -0.943632
0.000187 0.040704 0.002796 0.014069 0.922300 0.386151
-0.004128 0.004493 -0.006918 -0.223823 -0.044282 -0.973601
0.000614 0.040630 0.002929 0.146550 0.826746 0.543077
0.000195 0.040601 0.003026 -0.028687 0.644215 0.764275
-0.000996 0.040639 0.002907 -0.033906 0.779717 0.625172
0.003379 0.015971 0.005585 0.134098 0.055605 0.989380
-0.003455 0.041574 0.000462 -0.103275 0.957823 0.268105
-0.002296 0.040770 0.002569 -0.035707 0.901089 0.432112
-0.001000 0.039319 0.003504 -0.020844 0.201117 0.979339
-0.002823 0.040494 0.002987 -0.099521 0.777123 0.621387
-0.007339 0.030954 -0.005457 -0.459731 0.066805 -0.885525
-0.005578 0.035382 -0.005849 -0.343272 0.084994 -0.935362
0.001219 0.040011 -0.006125 0.011017 0.742637 -0.669576
0.002223 0.039791 -0.006395 0.022217 0.564074 -0.825404
-0.006105 0.038373 -0.005273 -0.460677 0.162725 -0.872494
-0.000363 0.040393 0.003312 -0.027558 0.587237 0.808924
-0.005102 0.038421 -0.005695 -0.331767 0.147618 -0.931730
-0.006219 0.028962 -0.006036 -0.338176 0.056246 -0.939390
-0.002531 0.036133 0.003833 -0.110752 0.131779 0.985046
-0.005584 0.022983 -0.006519 -0.267678 0.036378 -0.962798
-0.001648 0.031746 0.004429 -0.045656 0.120151 0.991699
-0.006319 0.022879 -0.006280 -0.353099 0.032105 -0.934996
-0.006324 0.025475 -0.006175 -0.342204 0.040437 -0.938719
-0.000214 0.028516 0.004837 -0.011292 0.107547 0.994110
0.000740 0.031853 0.004446 0.058870 0.121708 0.990814
0.000737 0.027935 0.004878 0.060549 0.102481 0.992859
0.000008 0.026617 0.005033 0.007111 0.094150 0.995514
0.000759 0.024432 0.005203 0.057222 0.078280 0.995270
0.005439 0.040360 0.001954 0.292032 0.768517 0.569262
0.006428 0.040281 0.001494 0.347819 0.753685 0.557604
-0.001575 0.024362 0.005211 -0.058565 0.073611 0.995544
-0.003788 0.039582 -0.005874 -0.262978 0.440077 -0.858547
0.005598 0.041151 -0.003253 0.116153 0.945524 -0.304025
0.004856 0.040322 -0.005091 0.112644 0.872738 -0.474960
0.003740 0.040572 -0.004869 0.083071 0.888791 -0.450667
-0.005961 0.039222 -0.005166 -0.432295 0.455123 -0.778405
-0.000673 0.012386 0.005988 -0.036744 0.039277 0.998535
0.001511 0.007370 0.006098 0.063173 0.026215 0.997650
0.001565 0.016958 0.005724 0.059633 0.064486 0.996124
-0.002882 0.039727 -0.006013 -0.186468 0.729667 -0.657857
0.000290 0.007619 0.006121 -0.019715 0.018983 0.999603
-0.002380 0.039938 -0.005824 -0.123356 0.859096 -0.496689
-0.000203 -0.005634 0.006267 -0.000671 0.006073 0.999969
-0.002778 0.040023 -0.005569 -0.133824 0.876858 -0.461684
-0.002242 -0.011362 0.006234 -0.051698 -0.000366 0.998657
-0.001755 0.040368 -0.005105 -0.093844 0.905698 -0.413373
-0.001106 0.040320 -0.005336 -0.075076 0.904569 -0.419599
-0.000878 0.040077 -0.005882 -0.077700 0.886654 -0.455824
-0.002531 0.041330 -0.002619 -0.089999 0.935820 -0.340709
-0.002357 0.041872 -0.000877 -0.080142 0.986023 -0.145940
0.000032 0.041285 -0.003292 -0.065004 0.932279 -0.355785
-0.001712 -0.031393 0.006006 -0.041688 -0.030152 0.998657
0.001036 0.041581 -0.002627 -0.040010 0.960723 -0.274545
0.002388 0.041523 -0.002970 0.122898 0.970641 -0.206732
0.003815 -0.012997 -0.006304 0.101566 -0.058596 -0.993072
0.002537 -0.021126 -0.005871 0.042604 -0.067507 -0.996796
0.001737 0.041378 -0.003280 -0.024201 0.920835 -0.389172
-0.003422 -0.037297 0.005644 -0.132237 -0.046388 0.990112
-0.001358 -0.038725 0.005717 -0.029511 -0.102817 0.994232
-0.004546 -0.026989 0.005763 -0.193487 -0.025422 0.980743
0.002100 0.041596 -0.002660 0.056673 0.983123 -0.173833
-0.002593 0.041869 -0.000116 -0.226722 0.952178 0.204749
-0.002639 0.041953 -0.000344 -0.911466 0.395764 -0.112094
-0.006322 -0.034774 0.004949 -0.391125 -0.061403 0.918271
-0.001649 0.041866 -0.000113 -0.020539 0.969359 0.244728
-0.001176 0.041936 -0.000306 0.011292 0.990112 0.139683
-0.001002 0.041922 -0.000630 0.053346 0.998108 -0.029878
-0.008010 -0.038482 0.003827 -0.548326 -0.485275 0.681051
-0.001412 0.041914 -0.000842 -0.029725 0.991760 -0.124363
-0.008580 -0.038559 0.002290 -0.841487 -0.530656 0.101413
-0.003958 0.041757 -0.000951 -0.142796 0.734031 0.663900
-0.007078 -0.040178 -0.000203 -0.315897 -0.939940 0.129215
-0.005700 0.041465 -0.001075 -0.131352 0.976867 -0.168737
0.000353 0.041728 -0.000034 0.087527 0.974456 0.206732
-0.005428 -0.040381 -0.001968 -0.230201 -0.886868 -0.400525
-0.000582 0.041827 -0.000018 0.069735 0.959319 0.273568
-0.007106 -0.040209 -0.001248 -0.339000 -0.815210 -0.469527
0.001280 0.040935 0.002084 0.059816 0.930815 0.360485
0.001904 0.040973 0.001865 0.084536 0.934812 0.344890
-0.006712 -0.039895 -0.001870 -0.577197 -0.816523 -0.009613
-0.005519 -0.039905 -0.002392 -0.320658 -0.423475 -0.847224
-0.001410 -0.040118 -0.003749 -0.205115 -0.470779 -0.858028
-0.002088 -0.040430 -0.003313 -0.223182 -0.774651 -0.591662
-0.004722 0.040891 -0.002905 -0.179571 0.903348 -0.389447
-0.005159 -0.036557 -0.003037 -0.345012 -0.111606 -0.931913
-0.007785 0.040846 -0.001612 -0.227180 0.896817 -0.379559
-0.006931 -0.039460 -0.001948 -0.557451 -0.266884 -0.786126
-0.007837 0.041327 -0.000509 -0.307474 0.950743 -0.039003
-0.002895 -0.025475 -0.005086 -0.307199 -0.097415 -0.946623
-0.005750 0.040841 0.001486 -0.161626 0.885189 0.436201
-0.002718 -0.018519 -0.005779 -0.187536 -0.071749 -0.979614
0.003134 0.040385 -0.005326 0.060762 0.887082 -0.457564
0.003504 0.040017 -0.005935 0.109500 0.825282 -0.553972
-0.002118 -0.015983 -0.006076 -0.909696 -0.187964 -0.370281
-0.004992 0.040600 0.002257 -0.153905 0.858303 0.489456
-0.004620 0.040426 0.002629 -0.241829 0.672903 0.699057
-0.000494 0.031127 -0.007155 -0.063784 0.062960 -0.995972
-0.001640 0.036084 -0.006703 -0.111301 0.081912 -0.990387
-0.000988 0.006582 -0.007371 -0.067019 -0.032807 -0.997192
-0.002954 0.015176 -0.007354 -0.138249 -0.003754 -0.990387
-0.002007 0.027292 -0.007196 -0.135197 0.042421 -0.989898
-0.001151 0.016174 -0.007558 -0.063936 0.005493 -0.997925
-0.003649 0.032677 -0.006605 -0.223670 0.063356 -0.972594
-0.003594 0.038385 -0.006135 -0.230934 0.124332 -0.964965
-0.005017 0.022647 0.004891 -0.222083 0.077700 0.971892
-0.002474 0.039618 -0.006208 -0.171667 0.387402 -0.905759
-0.001566 0.039805 -0.006238 -0.098514 0.669485 -0.736229
-0.003238 0.026968 0.004831 -0.146397 0.093631 0.984771
-0.000512 0.040022 -0.006044 -0.057283 0.806146 -0.588885
-0.002447 0.028422 0.004761 -0.071749 0.107913 0.991546
0.000219 0.040534 -0.005046 -0.029450 0.907468 -0.419019
0.000017 0.040026 -0.006094 -0.025452 0.772607 -0.634358
-0.004275 0.013955 0.005616 -0.166295 0.050356 0.984771
-0.007293 -0.022731 0.005015 -0.382305 -0.034455 0.923368
0.002445 0.040172 -0.005815 0.024476 0.872402 -0.488144
-0.010036 -0.023988 0.003463 -0.768059 -0.060427 0.637471
-0.010067 -0.031067 0.001851 -0.979583 -0.135960 0.148045
0.001861 0.041769 -0.000713 0.069735 0.995392 0.065493
0.002929 0.040667 0.002351 0.122074 0.904202 0.409223
0.003074 0.040869 0.001800 0.114872 0.934904 0.335734
-0.008085 -0.039717 -0.000326 -0.793359 -0.608539 0.014740
-0.000431 0.023674 -0.007477 -0.061678 0.019379 -0.997894
0.003256 0.039720 -0.006300 0.154759 0.397320 -0.904508
-0.006691 0.027481 -0.005933 -0.392254 0.046297 -0.918668
-0.005367 -0.027091 0.005574 -0.323160 -0.025727 0.945982
-0.007046 0.038726 -0.004709 0.330851 0.117649 -0.936308
0.008474 0.028703 0.002629 0.494217 0.105289 0.862911
0.009653 0.027191 0.001852 0.698233 0.082400 0.711081
0.004015 0.039798 -0.006126 0.168737 0.570299 -0.803888
-0.008676 0.040733 -0.001393 -0.429182 0.823725 -0.370434
-0.008863 -0.037596 0.003416 -0.879238 -0.208014 0.428510
0.006034 0.040406 0.001501 0.258065 0.873287 0.413190
-0.005575 0.040378 -0.003655 -0.191748 0.890469 -0.412580
-0.005311 0.040231 -0.004092 -0.199133 0.883358 -0.424238
0.003789 -0.024742 0.005695 0.304300 -0.038453 0.951781
0.001660 -0.037420 0.005657 0.170721 -0.067843 0.982971
-0.000653 -0.023743 -0.005672 -0.103000 -0.084628 -0.991058
-0.000619 -0.038105 -0.004316 -0.173437 -0.127079 -0.976592
-0.000153 -0.039918 0.005301 0.114566 -0.674093 0.729667
-0.000811 -0.040053 0.005177 0.019257 -0.924161 0.381481
-0.000073 -0.039448 0.005665 0.077181 -0.455519 0.886837
-0.001723 -0.039804 0.005464 -0.021577 -0.528611 0.848567
0.000061 -0.040653 -0.003294 -0.076113 -0.966094 -0.246681
0.001885 -0.040677 -0.003695 -0.004852 -0.957732 -0.287576
0.002792 -0.040435 -0.003999 0.024659 -0.577013 -0.816340
0.002414 -0.039377 -0.004313 0.027161 -0.160375 -0.986663
0.002980 -0.012083 -0.006430 0.048128 -0.058107 -0.997131
0.000875 -0.006389 -0.006789 -0.002930 -0.052309 -0.998596
0.000296 0.025874 -0.007438 -0.011719 0.035737 -0.999268
0.000496 0.027784 -0.007355 0.006531 0.049440 -0.998749
-0.000977 0.039570 -0.006410 -0.070284 0.362102 -0.929472
0.000514 0.039731 -0.006526 0.008393 0.559221 -0.828944
0.002974 0.039878 -0.006217 0.088168 0.740593 -0.666097
0.005222 0.040077 -0.005436 0.137364 0.831538 -0.538194
0.005821 0.039993 -0.005372 0.185308 0.808588 -0.558367
0.005924 0.039860 -0.005511 0.233497 0.698233 -0.676687
0.005896 0.039760 -0.005604 0.251259 0.513321 -0.820582
0.006526 0.039945 -0.005185 0.292703 0.673116 -0.679098
0.005793 0.040259 -0.004940 0.156743 0.862636 -0.480850
0.012885 0.012068 -0.002156 0.971892 0.018555 0.234626
0.012678 0.019913 -0.002912 0.996033 0.068148 -0.056734
0.012942 0.014119 -0.003004 0.971252 0.026643 -0.236427
0.012689 0.017125 -0.003267 0.860164 0.033876 -0.508835
0.012602 0.019923 -0.003181 0.924039 0.048860 -0.379101
0.012252 0.024347 -0.003322 0.905393 0.064180 -0.419660
0.011915 0.029767 -0.003054 0.993622 0.110996 0.018769
0.011839 0.005169 0.001107 0.893124 0.005097 0.449751
0.012096 -0.015210 -0.001448 0.963286 -0.051912 0.263375
0.012906 0.005100 -0.002700 0.998108 -0.021241 0.057680
0.012926 0.007846 -0.002930 0.952391 -0.013367 -0.304544
0.012529 0.012465 -0.003589 0.740104 -0.005890 -0.672445
0.012058 0.021096 -0.003882 0.767174 0.033692 -0.640492
0.012410 0.020799 -0.003446 0.839412 0.046571 -0.541459
0.011793 0.028282 -0.003590 0.837489 0.081362 -0.540300
0.011513 0.031038 -0.003625 0.868740 0.090243 -0.486923
0.011156 0.033482 -0.003716 0.839503 0.110965 -0.531877
0.010550 0.037093 -0.003737 0.718619 0.116153 -0.685598
0.010926 0.037823 -0.003118 0.940336 0.113071 -0.320841
0.010821 0.038757 -0.002863 0.974151 0.212378 -0.076724
-0.004186 -0.040121 0.004966 -0.359020 -0.183142 0.915159
0.008659 0.015317 0.003623 0.573260 0.032289 0.818690
0.008037 0.012704 0.004109 0.549699 0.033204 0.834681
0.010006 0.004613 0.003031 0.552019 0.023133 0.833491
0.010876 0.003385 0.002438 0.716880 -0.008087 0.697134
0.008458 0.024484 0.003044 0.568957 0.074526 0.818964
0.008570 0.019253 0.003429 0.589068 0.061464 0.805719
0.010026 -0.004769 0.003048 0.523515 0.002655 0.851985
0.011206 -0.003799 0.002239 0.755150 0.019532 0.655232
0.001225 -0.040557 -0.003824 -0.094943 -0.683950 -0.723289
0.011319 -0.010904 0.001704 0.914518 -0.028748 0.403485
0.010888 -0.022418 0.001613 0.921720 -0.054781 0.383892
0.010622 -0.026896 0.001538 0.926817 -0.058535 0.370891
0.011044 -0.031255 -0.000928 0.974151 -0.148869 -0.169836
0.010929 -0.024437 -0.002960 0.769311 -0.089908 -0.632496
0.001137 -0.040110 -0.004214 -0.075076 -0.507401 -0.858425
0.012346 -0.016021 -0.002491 0.950591 -0.114078 -0.288644
0.012684 -0.005021 -0.002661 0.996887 -0.023957 0.074709
0.012664 -0.005042 -0.002789 0.907071 -0.033174 -0.419599
0.012339 -0.004406 -0.003197 0.710624 -0.026856 -0.703024
0.011460 0.020600 -0.004570 0.628956 0.006378 -0.777367
0.011524 0.024985 -0.004231 0.688406 0.051088 -0.723472
0.011815 0.025129 -0.003904 0.819788 0.050233 -0.570421
0.011556 0.027175 -0.004026 0.734550 0.066256 -0.675283
0.000230 0.006843 -0.007415 0.015961 -0.039186 -0.999084
0.010899 0.033745 -0.003963 0.679281 0.102878 -0.726585
-0.000448 0.027191 -0.007358 -0.065249 0.043611 -0.996887
0.010900 -0.009257 0.002475 0.688589 -0.022950 0.724784
0.010788 -0.003149 -0.004625 0.815516 -0.017792 -0.578448
0.011514 -0.007952 -0.003795 0.491317 -0.059236 -0.868954
0.011282 0.022187 -0.004637 0.240089 0.057527 -0.969024
3 0 1 2
3 1 3 2
4 4 5 6 7
3 8 9 10
4 11 12 13 14
3 9 15 16
3 15 17 16
3 15 18 17
4 19 20 21 22
3 23 24 17
3 25 26 23
3 26 27 23
3 28 25 23
3 26 29 27
3 29 30 27
4 31 32 33 34
3 30 35 36
4 37 38 39 40
3 41 42 36
3 43 44 41
3 43 45 44
3 45 46 44
3 46 47 44
3 47 48 44
3 48 49 44
3 50 51 52
3 51 53 52
3 53 54 52
4 55 56 57 58
3 53 59 54
3 53 60 59
3 60 61 59
3 49 62 63
3 62 64 63
3 48 65 49
3 65 62 49
3 60 66 61
3 66 67 61
3 67 68 61
3 68 69 61
3 69 70 61
3 69 71 70
3 71 72 70
3 72 73 70
3 73 74 70
3 73 75 74
3 73 76 75
3 73 7 76
3 7 77 76
3 7 6 77
3 6 78 77
3 78 79 77
3 78 6 79
3 6 5 79
3 5 80 79
3 80 81 79
4 82 83 84 85
3 86 87 79
3 88 89 13
3 87 90 79
3 89 14 13
3 90 91 79
4 92 93 94 95
3 87 96 90
3 14 97 11
3 87 98 96
3 14 99 97
3 98 100 96
3 14 101 99
3 100 102 96
3 101 103 99
3 102 104 96
3 101 105 103
3 106 107 104
3 14 108 101
3 102 106 104
3 108 109 101
3 106 110 107
3 108 111 109
3 110 112 107
3 111 113 109
3 112 114 107
3 113 115 109
3 112 21 114
3 113 84 115
3 116 117 19
3 113 85 84
3 117 118 19
4 10 2 3 8
4 119 120 121 122
4 123 8 3 1
3 22 116 19
3 117 124 118
3 125 126 127
4 128 129 50 130
3 125 131 126
4 132 133 134 135
3 136 137 118
3 137 8 118
3 138 121 126
3 8 123 118
3 139 140 121
3 123 132 118
3 140 122 121
3 123 1 132
4 141 142 143 144
3 1 133 132
3 112 102 21
3 138 145 121
3 102 22 21
3 145 146 121
3 1 0 133
3 146 147 121
4 148 149 87 86
3 147 150 121
3 150 151 121
3 137 9 8
3 151 152 121
3 153 154 9
3 152 155 121
4 156 157 113 111
3 119 158 120
3 159 15 9
3 119 160 158
3 137 153 9
3 119 161 160
4 162 163 164 165
3 166 167 168
3 122 140 168
4 169 170 171 172
3 140 166 168
3 166 173 167
3 174 18 15
3 175 176 177
3 174 28 18
3 176 178 177
3 26 25 28
3 179 180 177
4 181 182 183 184
3 180 185 177
3 185 186 177
3 187 188 26
3 186 189 177
4 190 191 26 192
3 189 175 177
3 193 179 152
3 94 192 26
3 151 194 152
4 145 138 126 131
3 194 193 152
3 193 180 179
4 83 125 127 84
3 176 195 178
3 196 197 195
3 191 198 30
3 176 175 195
3 198 199 30
3 175 200 195
3 199 35 30
3 200 201 195
3 199 202 35
3 201 196 195
3 202 43 35
3 200 203 201
3 202 45 43
3 203 189 201
3 202 199 45
3 189 204 201
3 199 205 45
3 204 206 201
3 205 46 45
3 206 207 201
3 205 208 46
3 206 209 207
3 208 210 46
3 209 211 207
3 210 212 46
3 211 213 207
3 212 130 46
3 213 55 207
3 130 47 46
3 213 214 55
3 130 65 47
3 214 215 55
3 65 48 47
3 216 217 214
4 218 219 220 221
3 213 209 214
3 209 216 214
3 64 222 50
4 216 223 224 217
3 222 130 50
4 57 225 226 227
3 216 209 223
4 228 172 229 230
3 231 53 51
4 64 50 52 63
3 231 232 53
3 33 233 34
3 232 234 53
3 234 60 53
3 32 235 33
3 234 66 60
3 31 236 32
3 65 130 62
3 236 88 32
3 130 222 62
3 236 31 88
3 222 64 62
3 31 237 88
3 234 67 66
3 237 238 88
3 234 239 67
3 238 240 88
3 239 68 67
3 240 156 88
3 239 69 68
3 156 89 88
3 241 71 69
3 156 14 89
3 239 241 69
3 156 108 14
3 241 242 71
3 156 111 108
3 242 7 71
4 36 243 27 30
3 7 72 71
3 7 73 72
3 157 244 113
3 242 245 7
3 244 246 113
3 245 81 7
3 246 85 113
3 81 80 7
3 246 82 85
3 80 4 7
4 247 248 249 250
3 82 125 83
3 82 251 125
3 4 80 5
3 251 131 125
3 252 253 81
3 251 145 131
3 253 254 81
3 251 255 145
3 245 256 81
3 255 257 145
3 256 258 81
3 257 259 145
3 258 252 81
3 259 260 145
3 148 86 254
3 260 261 145
3 253 148 254
3 261 262 145
3 262 146 145
3 262 147 146
3 149 263 87
3 262 150 147
4 264 218 265 266
3 262 267 150
3 267 260 150
3 268 269 98
3 260 270 150
3 269 100 98
3 270 271 150
3 269 272 100
3 271 273 150
3 272 274 100
3 273 151 150
3 274 275 100
3 273 276 151
3 275 102 100
3 276 194 151
4 277 278 279 280
3 203 200 175
3 189 203 175
3 163 22 102
3 193 194 180
3 112 110 102
3 194 185 180
3 110 106 102
3 194 186 185
3 281 162 116
3 282 283 186
3 162 117 116
3 283 209 186
3 22 281 116
3 209 189 186
3 284 285 117
3 194 276 186
3 285 124 117
3 276 282 186
4 286 287 238 237
3 209 204 189
3 163 288 22
3 209 206 204
3 288 281 22
3 289 290 124
3 213 211 209
3 290 291 124
3 282 292 293
3 285 294 124
3 292 260 293
3 294 289 124
3 260 259 293
3 290 295 291
3 259 257 293
3 295 296 291
3 257 297 293
4 164 163 102 275
3 297 298 293
4 299 300 143 301
3 298 302 293
3 302 31 293
3 303 136 291
3 283 282 293
3 303 304 136
3 302 305 31
3 304 306 136
3 305 307 31
3 306 308 136
3 307 286 31
3 308 153 136
3 286 237 31
3 153 137 136
4 28 23 17 18
3 308 309 153
3 309 154 153
3 287 240 238
3 309 310 154
3 287 311 240
3 311 244 240
3 309 95 310
3 244 156 240
3 95 312 310
3 244 157 156
3 312 188 310
3 287 286 244
3 188 187 310
3 286 246 244
3 187 313 310
3 311 287 244
3 95 94 312
3 286 297 246
3 93 229 94
3 297 82 246
3 229 314 94
3 255 251 82
3 314 192 94
3 297 255 82
4 187 26 28 174
3 297 257 255
3 314 172 192
3 292 270 260
3 172 171 192
3 267 261 260
3 171 315 192
3 267 262 261
3 315 190 192
3 292 282 270
4 170 316 315 171
3 282 317 270
3 198 191 190
3 317 271 270
3 317 273 271
3 316 199 198
3 317 282 273
3 318 319 199
3 282 276 273
3 319 205 199
3 286 320 297
4 31 34 223 293
3 320 298 297
4 321 322 232 323
3 320 302 298
4 24 324 325 17
3 319 318 205
3 307 305 302
3 318 208 205
4 312 94 26 188
3 326 327 210
3 327 328 210
3 328 329 210
3 329 212 210
3 329 330 212
3 330 128 212
3 128 130 212
4 301 143 331 332
4 333 278 334 335
3 323 232 231
3 322 336 232
3 336 337 232
3 337 338 232
3 338 234 232
4 339 340 341 342
3 338 343 234
3 343 239 234
3 344 345 230
3 345 346 230
3 346 347 230
3 347 228 230
3 348 349 248
3 347 350 228
3 349 351 248
4 352 353 354 355
4 256 245 242 241
3 356 357 358
3 181 184 350
3 357 359 358
3 184 360 350
3 357 361 359
3 360 169 350
3 361 362 359
3 360 184 169
3 362 363 359
4 364 365 366 367
3 368 369 363
4 353 370 371 372
3 369 373 363
3 362 368 363
3 182 374 183
3 368 375 369
3 374 376 183
3 375 377 369
3 374 378 376
3 377 379 369
3 374 380 378
3 381 382 379
4 383 384 385 386
3 382 58 379
3 380 387 388
3 58 389 379
3 387 390 388
3 389 391 379
3 390 392 388
3 377 381 379
3 390 393 392
4 231 51 50 129
3 390 394 393
3 390 387 394
4 395 323 231 129
3 387 396 394
3 396 397 394
4 332 331 398 394
3 397 399 394
3 399 332 394
3 400 224 401
4 402 403 296 295
3 224 404 401
3 398 405 394
3 404 406 401
3 225 407 401
3 331 143 398
3 407 400 401
3 143 408 398
3 57 409 225
3 408 410 398
3 409 411 225
4 283 293 223 209
3 411 412 225
3 410 413 414
3 412 407 225
3 413 415 414
3 404 366 406
3 416 417 415
4 418 318 199 419
3 413 416 415
3 365 371 366
3 416 420 417
3 371 421 366
4 344 422 423 424
3 404 425 366
3 425 367 366
3 426 427 428
3 371 429 421
3 426 430 427
3 371 431 429
3 430 432 427
3 371 370 431
3 432 321 427
3 370 433 431
3 434 335 432
3 433 435 431
3 430 426 432
3 435 436 431
3 426 279 432
3 436 437 431
3 279 434 432
3 438 439 440
3 334 441 335
3 439 442 440
3 434 333 335
3 442 443 440
4 444 275 274 445
3 443 446 440
3 447 448 441
3 436 435 440
3 334 449 441
3 435 438 440
3 449 447 441
3 442 450 443
3 447 266 448
3 442 439 450
3 447 264 266
3 451 452 439
3 453 218 264
3 452 454 439
3 447 449 264
3 454 455 439
4 43 41 36 35
3 455 456 439
3 453 457 218
3 456 458 439
3 457 459 218
3 438 460 439
3 459 461 218
3 460 462 439
3 461 219 218
3 455 463 456
3 461 464 219
3 455 465 463
3 466 248 464
3 467 468 463
3 248 469 464
3 455 454 465
3 469 470 464
3 452 451 454
3 470 471 464
3 460 438 462
3 471 472 464
3 438 355 462
3 461 466 464
3 355 473 462
3 470 474 471
3 473 354 462
3 354 475 462
3 476 358 474
3 475 477 462
3 358 359 474
3 477 12 462
3 359 363 474
3 477 13 12
3 363 478 474
3 363 373 478
3 11 479 12
3 373 480 478
3 479 40 12
3 369 342 480
4 481 424 423 482
3 373 369 480
3 479 11 40
3 341 483 342
3 11 97 40
3 369 379 342
3 97 484 40
3 379 391 342
3 484 485 40
3 391 339 342
3 485 37 40
4 486 487 295 289
3 484 97 485
3 339 488 340
3 97 99 485
4 427 323 395 428
3 99 103 485
3 103 105 485
3 489 490 491
3 105 144 485
3 226 492 490
3 144 300 485
4 330 395 129 128
3 300 299 485
3 105 101 144
3 401 493 492
3 101 109 144
3 226 225 492
3 109 115 144
3 225 401 492
3 115 141 144
4 318 326 210 208
3 494 142 141
3 115 84 141
3 421 495 493
3 84 127 141
3 401 406 493
3 127 126 141
3 421 429 495
3 126 121 141
3 429 496 495
3 121 120 141
3 429 431 496
3 120 494 141
3 431 437 496
3 494 497 142
3 437 498 496
3 497 499 142
3 437 500 498
3 120 158 494
3 500 501 498
3 158 502 494
3 440 446 500
3 158 160 502
4 30 29 26 191
3 160 161 502
3 437 436 500
3 161 280 502
3 436 440 500
3 119 277 280
3 446 443 344
3 161 119 280
3 443 450 344
3 168 167 277
3 450 345 344
3 167 173 277
3 424 481 344
3 173 503 277
3 481 504 344
3 119 122 277
3 450 439 345
3 122 168 277
3 439 458 345
3 173 166 503
3 458 456 345
3 166 505 503
3 456 463 345
3 177 506 505
3 463 507 345
3 166 140 505
3 507 346 345
3 140 139 505
3 507 463 346
3 139 121 505
3 463 468 346
3 121 155 505
4 310 313 15 159
3 155 152 505
3 152 179 505
3 468 508 509
3 179 177 505
3 508 181 509
3 178 348 506
3 508 182 181
3 177 178 506
3 508 374 182
3 247 510 348
3 508 468 374
3 178 349 348
3 468 467 374
3 247 250 510
3 467 380 374
4 491 511 284 165
3 467 387 380
3 349 195 351
3 463 465 387
3 195 197 351
3 465 454 387
3 197 196 351
3 454 451 387
3 196 357 351
3 451 396 387
3 357 356 351
3 467 463 387
3 178 195 349
3 451 439 396
3 196 201 357
3 439 462 396
3 201 361 357
3 462 12 396
3 377 375 361
3 12 40 396
3 375 368 361
3 40 39 396
3 368 362 361
3 39 38 396
3 201 381 361
3 38 397 396
3 381 377 361
3 37 399 397
3 207 382 381
3 38 37 397
3 201 207 381
3 37 485 399
3 207 58 382
3 485 299 399
3 57 389 58
3 299 301 399
3 207 55 58
3 301 332 399
4 187 174 15 313
4 403 512 291 296
3 56 409 57
4 36 383 386 243
3 407 513 400
3 513 215 400
3 300 144 143
3 215 214 400
4 291 136 118 124
3 214 217 400
3 217 224 400
3 142 408 143
4 514 453 264 449
3 142 410 408
3 142 499 410
3 233 515 224
3 499 420 410
3 515 367 224
3 420 413 410
3 367 404 224
3 420 416 413
4 44 516 517 383
3 499 497 420
3 497 494 420
3 367 425 404
4 165 284 117 162
3 412 513 407
3 56 411 409
4 254 86 79 81
3 55 215 411
3 279 333 434
3 215 412 411
3 56 55 411
4 263 268 98 87
3 215 513 412
3 515 233 367
3 278 333 279
3 233 33 367
3 33 235 367
3 278 449 334
3 235 32 367
4 518 303 291 512
3 278 277 449
3 277 514 449
3 514 277 453
3 372 371 365
3 277 503 453
3 364 88 365
3 503 505 453
3 88 519 365
3 505 457 453
3 519 475 365
3 520 459 457
3 475 372 365
3 505 520 457
4 521 419 170 169
3 506 348 459
3 348 510 459
3 353 433 370
3 510 250 459
3 353 352 433
3 250 461 459
3 352 435 433
3 520 505 459
4 509 347 346 468
3 505 506 459
3 250 466 461
3 354 473 355
3 250 249 466
4 315 316 198 190
3 249 248 466
3 522 475 354
3 351 356 248
3 356 358 248
3 353 372 354
3 358 476 248
3 372 523 354
3 476 469 248
3 523 522 354
3 519 88 475
3 247 348 248
3 88 13 475
3 13 477 475
3 343 524 239
3 524 241 239
3 522 523 475
3 523 372 475
4 310 159 9 154
3 525 258 241
3 258 256 241
4 478 526 527 474
3 258 253 252
3 528 529 253
3 529 265 253
3 265 221 253
4 489 491 488 339
3 258 528 253
3 525 530 258
3 530 531 258
3 531 528 258
3 220 532 148
3 532 263 148
3 263 149 148
3 532 533 263
3 533 534 263
3 534 268 263
3 534 535 268
3 535 269 268
3 535 272 269
3 535 527 272
3 527 526 272
3 526 445 272
3 445 274 272
4 57 227 391 389
3 444 164 275
3 444 536 164
3 536 537 164
3 537 165 164
4 502 280 279 426
3 162 288 163
3 288 162 281
3 511 538 284
3 538 539 284
3 539 289 284
3 289 294 284
3 294 285 284
4 426 428 417 420
4 414 329 398 410
3 295 290 289
3 539 486 289
3 487 540 295
3 540 541 295
3 541 402 295
4 350 169 172 228
3 403 542 512
3 542 518 512
3 542 304 518
3 304 303 518
3 542 482 304
3 482 423 304
3 423 543 304
3 543 544 304
3 544 545 304
3 545 546 304
3 546 306 304
3 546 308 306
3 546 545 308
3 545 95 308
3 95 309 308
3 545 547 95
3 547 92 95
3 92 548 93
3 548 423 93
3 423 422 93
3 422 230 93
3 230 229 93
4 344 402 500 446
3 172 314 229
4 352 355 438 435
4 221 220 148 253
4 476 474 470 469
3 418 183 318
3 183 326 318
3 521 418 419
3 521 169 418
3 169 184 418
3 184 183 418
3 183 376 326
3 376 378 326
3 385 549 550
3 378 327 326
3 549 551 550
3 378 328 327
3 551 552 550
3 552 553 550
3 388 392 328
3 553 554 550
3 392 393 328
3 554 555 550
3 393 394 328
3 555 386 550
3 394 405 328
3 386 385 550
3 405 398 328
4 34 233 224 223
3 398 329 328
3 384 549 385
3 384 556 549
3 414 330 329
3 556 557 549
3 414 415 330
3 557 558 549
3 415 417 330
3 558 559 549
3 417 428 330
3 559 551 549
3 428 395 330
3 560 552 551
4 489 339 391 227
3 559 560 551
3 560 561 552
3 427 321 323
3 561 562 552
3 562 553 552
3 432 337 322
3 562 554 553
3 337 336 322
3 562 561 554
3 321 432 322
3 561 563 554
3 335 441 337
3 563 555 554
3 441 525 337
3 563 386 555
3 563 564 386
3 524 338 337
3 564 565 386
3 432 335 337
3 565 566 386
3 524 343 338
3 566 325 386
3 441 448 525
3 325 567 386
3 448 530 525
3 567 324 386
3 531 529 528
3 324 568 386
3 531 265 529
3 568 243 386
3 569 221 265
4 509 181 350 347
3 531 266 265
4 388 328 378 380
3 570 571 384
3 571 572 384
3 218 569 265
3 572 573 384
3 569 218 221
3 573 556 384
4 502 426 420 494
3 383 517 384
3 448 531 530
3 517 574 384
3 448 266 531
3 574 575 384
3 219 464 220
3 575 570 384
3 464 532 220
3 573 576 556
3 576 577 556
3 578 533 532
3 577 579 556
3 464 472 532
3 579 557 556
3 472 471 532
3 579 580 557
3 471 578 532
3 580 581 557
3 578 534 533
3 581 582 557
3 578 471 534
3 582 583 557
3 471 584 534
3 583 585 557
3 584 535 534
3 585 586 557
3 584 527 535
3 586 558 557
3 584 471 527
3 586 559 558
3 471 474 527
3 586 587 559
4 524 337 525 241
3 587 588 559
3 588 560 559
3 478 480 526
3 20 561 560
3 480 342 526
3 588 20 560
3 342 483 526
3 589 590 561
3 483 341 526
3 590 591 561
3 341 537 526
3 591 563 561
3 537 445 526
3 20 589 561
3 537 536 445
3 591 592 563
3 536 444 445
3 592 134 563
3 341 340 537
3 134 564 563
3 340 488 537
3 134 565 564
3 488 593 537
3 134 594 565
3 593 165 537
3 594 566 565
3 593 488 165
3 2 10 566
3 488 491 165
3 16 17 566
3 490 595 511
3 17 325 566
3 595 538 511
3 594 2 566
3 491 490 511
3 324 567 325
3 595 539 538
4 170 419 199 316
3 595 486 539
3 595 490 486
3 24 568 324
3 490 487 486
4 320 286 307 302
3 492 493 487
3 493 540 487
3 23 27 243
3 490 492 487
3 493 495 540
3 495 496 540
3 36 42 383
3 496 498 540
3 42 41 383
3 498 501 540
3 41 44 383
3 501 402 540
4 16 566 10 9
3 402 541 540
3 575 571 570
3 501 500 402
3 52 54 571
3 54 59 571
3 344 504 402
3 59 576 571
3 504 542 402
3 576 572 571
3 542 403 402
3 575 63 571
3 504 482 542
3 63 52 571
3 504 481 482
3 576 573 572
4 366 421 493 406
3 548 543 423
3 516 574 517
3 516 44 574
4 88 364 367 32
3 44 49 574
3 49 63 574
3 548 544 543
3 63 575 574
3 547 545 544
3 61 70 576
3 548 92 544
3 70 74 576
3 92 547 544
3 74 75 576
3 344 230 422
3 75 596 576
3 596 577 576
3 59 61 576
3 596 579 577
3 596 75 579
3 75 580 579
3 75 581 580
3 75 76 581
3 76 77 581
3 77 582 581
3 77 79 582
3 79 583 582
3 79 91 583
3 91 90 583
3 90 96 583
3 96 104 583
3 104 107 583
3 107 114 583
3 114 597 583
3 597 20 583
3 20 598 583
3 598 588 583
3 588 585 583
3 588 587 585
3 587 586 585
3 598 20 588
3 19 118 20
3 118 132 20
3 132 135 20
3 135 134 20
3 134 599 20
3 599 589 20
3 597 114 20
3 114 21 20
3 599 590 589
3 134 592 590
3 592 591 590
3 599 134 590
4 23 243 568 24
3 133 0 134
3 0 594 134
3 0 2 594
4 227 226 490 489
